<?xml version="1.0" encoding="utf-8"?>
<!DOCTYPE svg PUBLIC "-//W3C//DTD SVG 1.1//EN" "http://www.w3.org/Graphics/SVG/1.1/DTD/svg11.dtd">
<svg version="1.1" id="Layer_1" xmlns="http://www.w3.org/2000/svg" xmlns:xlink="http://www.w3.org/1999/xlink" x="0px" y="0px"
	 viewBox="-476.2182 -646.1393 1271.2765 1644.0988" enable-background="new -476.2182 -646.1393 1271.2765 1644.0988"
	 xml:space="preserve">
<g id="_x23_ffffffff">
</g>
<g id="_x23_1d181eff">
	<path fill="#1D181E" d="M737.1699-53.3436c-14.6437-32.3802-27.5593-65.761-35.1998-100.5513
		c-5.8213-28.5602,0.1365-60.713,22.0117-81.2688c12.6429-17.0087,34.472-19.5557,54.0271-20.6926
		c-29.7421-42.84-76.3569-68.6714-119.9699-95.1395c-41.3853-22.9662-84.6347-42.7945-129.7483-57.3019
		c-38.9748-12.188-75.8117-32.4257-116.6962-37.8831c3.6834,3.6837,7.1398,7.8223,11.9152,10.1414
		c28.3326,14.1891,56.9838,30.5612,76.4484,56.256c19.055,22.4208,40.1567,44.2501,49.3883,72.9466
		c23.1486,48.4792,11.1424,104.6445-8.5038,152.1233c-30.5609,64.9877-76.676,127.3378-144.301,156.8074
		c-26.787,10.6419-56.0745,23.9669-85.3619,14.8713c-51.0715-12.2335-84.9073-66.989-78.0856-118.1515
		c5.0025-39.8838,28.0145-74.2198,48.8886-107.5093c31.7889-42.2035,68.0352-83.6337,80.9957-136.2971
		c15.281-47.8427-3.6834-102.1885-40.839-134.5234c-27.6958-24.6034-65.0784-32.1073-101.006-33.2898
		c-50.4347-4.7296-99.3689,18.3277-135.9782,51.7537c21.9195-53.3909,39.1558-108.601,58.2113-163.0378h-8.5954
		c-28.6057,77.8124-71.7186,149.3037-121.1984,215.4738c-10.3685,12.6882-24.9217,23.1481-29.6966,39.4747
		c0.2726,14.1891,10.7777,26.0135,10.9142,40.1115c-7.1853,9.0956-20.5561,10.187-29.333,17.6454
		c-5.2756,10.8237-2.3649,25.1039-12.3243,33.4716c-10.5967,11.0511-28.4691,25.7858-15.8717,42.1125
		c14.6892,16.3264,36.2457,25.6495,56.8928,32.1983c-4.6843-14.3711-17.6915-30.5157-8.2317-45.5233
		c14.098-11.0966,36.8824-10.5964,45.1136-28.6057c8.8685-15.0531,9.5963-33.8807,20.5105-47.7969
		c15.4176-5.6395,33.9718-4.457,46.3877-16.8268c17.5088-13.7344,21.0562-36.7462,31.9705-54.8007
		c15.0989-17.2363,37.2466-27.7871,59.6219-31.5616c28.6962-4.9117,61.5316,10.4598,71.5365,38.7924
		c9.05,22.5116-0.7278,46.7513-10.8692,67.0798c-18.1911,31.0159-45.0686,55.5285-71.9456,78.8586
		c-45.5233,42.8855-75.3115,98.7321-106.7363,151.9867C56.1853-66.0318,51.7286-32.9241,26.6703-13.4595
		C-0.2067,10.1435-39.2725,16.2829-73.654,9.4157c-37.155-8.9135-74.9018-22.466-103.0978-49.2978
		c-17.2363-16.0993-36.2457-31.198-48.0704-52.0266c-11.8236-20.9655-25.3764-41.9762-28.6051-66.3522
		c-9.4592-55.1191,8.0041-111.4661,36.1552-158.6266c17.6904-32.3802,42.8397-60.6672,74.0374-80.541
		c14.7348-11.6423,33.7903-17.7365,45.7049-32.6533c-30.6065,1.7282-60.076,11.2787-89.1813,20.3287
		c-58.2573,17.1905-112.376,45.3412-167.4951,70.2177c-37.2916,20.1921-71.1723,46.1145-104.9626,71.5365
		c15.326,3.5929,33.6082,2.8196,45.2502,15.2352c18.6913,19.2825,21.784,48.2519,19.4191,73.8104
		c-2.592,24.1032-6.5036,49.0249-19.1465,70.1722C-445.2985-54.8444-462.034,9.2339-454.1664,71.7659
		c2.0463,20.1011,8.7314,39.3837,11.2329,59.4395c28.4691-29.515,67.7165-51.3899,109.3288-52.2539
		c51.9353,6.3667,102.0519,30.1063,138.7528,67.6707c26.741,24.1942,42.0214,58.2573,69.8994,81.3599
		c3.1383-23.1936,12.8245-46.751,32.3802-60.7583c22.6023-15.1897,50.7984-27.1956,78.3126-19.4646
		c32.4712,10.2325,62.4409,32.6533,76.3574,64.3967c13.962,30.9704,31.5613,60.8493,37.9283,94.6393
		c7.686,39.6565,18.2366,78.9494,20.6016,119.4247c4.0931,45.6141,11.9607,90.819,13.5068,136.6607
		c2.0924,23.8303,4.8659,48.1611-1.3185,71.6275c-6.1855,23.1484-9.8689,49.207-28.3326,66.3068
		c-12.2338,13.8707-36.6554,20.8286-51.2991,7.0035c-12.1428-8.959-20.6926-23.3757-36.4733-26.4681
		c2.9101,18.1003,20.7831,27.6506,29.333,42.8856c17.5544,30.743,36.6098,60.6219,53.573,91.7289
		c18.3277,34.5175,31.2887,71.5365,47.2509,107.1457c7.5956,16.6903,11.4605,34.7448,14.2351,52.7997
		c1.7276-0.0911,5.184-0.2274,6.9127-0.2729c11.3239-35.9731,27.1501-70.3088,43.3405-104.2805
		c16.8721-41.8397,38.6106-81.3599,62.4409-119.6066c14.5527-27.3322,36.5638-51.2081,43.9312-81.9056
		c-17.3728,14.0525-36.7009,29.0148-60.2581,28.742c-21.1467,2.0463-44.523-9.5505-50.0711-31.2435
		c-16.781-51.7535-3.1377-106.3723-0.5907-159.1723c10.5956-67.0342,17.5538-134.6142,31.6068-201.0572
		c2.592-15.4626,11.8241-28.9238,13.7799-44.4774c0.136-1.3188,0.2726-2.5923,0.4541-3.911
		c12.5519-13.5978,22.921-33.9265,35.655-47.1149c20.8741-24.7399,50.3442-43.386,82.9059-46.6603
		c17.8269-2.4105,35.7005,5.4574,47.9338,18.2366c10.4601,12.0062,13.6433,28.0597,16.6445,43.2039
		c33.2901-43.1129,65.6702-90.0915,115.3322-115.7866c41.4296-22.6934,91.6828-30.6065,136.9785-15.5533
		c14.1441,6.4578,28.1511,14.3709,38.7017,26.0132c11.1424,12.3701,14.5532,29.1514,19.3736,44.5229
		c2.0468-0.3184,6.14-0.9096,8.1862-1.228c10.4146-41.8396,6.14-85.2709,5.139-127.838
		C755.2244,5.9594,747.3113-24.2377,737.1699-53.3436z M13.4822-351.1321c-1.7287-8.6864-6.5491-18.1456-1.8198-26.7865
		c7.0493-9.6413,17.1907-16.554,28.06-21.3291C36.4936-381.3295,31.2181-360.0004,13.4822-351.1321z M-446.1623,88.9564
		c-10.187-51.799-1.5466-105.0991,16.9176-153.9422c10.7332-30.1518,33.7897-54.9373,39.0203-87.1353
		c6.6851-32.2439,8.5038-68.0804-8.6414-97.5044c-6.8666-12.4156-20.0553-18.5095-32.6527-23.4212
		c-0.0455-1.0007-0.1366-3.0014-0.1821-4.0021c29.197-15.1442,64.1697-25.9224,96.3222-13.8252
		c19.1465,6.5941,27.5592,26.8318,31.88,44.9773c4.2752,39.2021-12.0973,76.3119-26.6499,111.6935
		C-363.0287-65.85-412.9178-5.5919-433.7924,68.264C-436.8391,75.5859-438.1581,85.1819-446.1623,88.9564z M-232.5532,103.2365
		c-40.8845-20.0556-87.6813-43.4768-133.9774-28.4236c-24.8762,6.2304-45.9785,21.1018-67.6255,34.1084
		c9.7323-51.026,41.5212-96.7766,82.9514-127.4289c25.1943-17.0542,57.0743-34.0173,87.8629-21.4199
		c46.7513,16.554,73.5378,62.8504,86.2257,108.2371c10.7788,42.2488,22.2848,84.2705,34.5181,126.0643
		C-167.2466,159.4469-196.353,126.4303-232.5532,103.2365z M-5.0731,139.7097c-34.6996-10.9148-73.0376,0.7275-99.3239,24.8307
		c-10.187,10.2325-16.9631,23.1483-24.421,35.3819c-10.3691-28.4691-20.9202-59.9397-10.9603-90.0915
		c8.1402-32.7896,36.8369-58.4389,70.0359-63.8963c23.7848-7.3221,47.6151,4.8206,66.7156,18.1456
		c31.6524,23.603,47.5696,60.9856,62.8506,96.0491c8.3222,18.0093,12.4609,37.5647,15.3715,57.0746
		C60.0059,181.9585,30.7179,153.5804-5.0731,139.7097z M136.4538,712.9118c-0.8644,17.782-18.6913,34.2449-36.8369,30.1063
		c-11.0058-3.6837-21.3743-9.6868-29.3785-18.1912c41.5207-0.9096,64.4872-43.2947,67.9436-80.0863
		C143.7301,667.2522,137.5907,690.264,136.4538,712.9118z M227.0002,702.6793c18.5547,9.1411,39.702,3.0469,59.3032,1.9555
		c-19.1465,22.8755-55.7558,44.5682-83.1336,22.4205c-7.9131-16.7813-6.458-37.0643-6.5491-55.4374
		C205.7164,682.8511,213.2203,696.4944,227.0002,702.6793z M185.7515,167.5876c-38.0643,12.0515-80.8597-7.2311-102.4616-39.5202
		c-9.6862-18.3732-16.0532-39.6113-11.642-60.4402c4.5023-34.1083,31.1067-63.9418,64.4423-72.3551
		c21.1012-5.6847,44.3864-3.0925,63.76,7.0035c20.2374,13.6889,37.9283,33.4263,42.9763,58.0297
		C256.7884,103.7822,229.5017,154.7173,185.7515,167.5876z M439.7455,199.3766c-11.2784-23.0118-31.7889-45.7962-59.6219-44.7958
		c-57.4834,0.5912-109.0101,49.7527-127.2468,102.0977c4.7754-37.792,16.554-74.4471,30.9251-109.5559
		c12.9155-24.831,30.5609-47.206,50.4802-66.8524c19.6006-18.9642,50.7534-27.3322,76.1298-15.5988
		c21.829,11.5513,28.7872,37.1553,35.8365,58.8938C448.75,148.6687,451.433,176.0009,439.7455,199.3766z M675.2297,81.4527
		c-53.8917-11.7334-112.149,5.0935-153.6241,40.7934c-21.1023,15.0076-35.746,37.019-56.3476,52.5723
		c15.5086-46.6603,20.1469-95.867,34.8367-142.6638c10.5051-28.6965,28.105-56.4378,55.1185-72.0822
		c24.7402-12.8703,57.3935-10.3236,78.7679,8.0949c40.8389,26.7865,63.851,71.3092,88.4541,111.9211
		c6.4125,9.8231,10.3235,20.9652,13.0976,32.3802C716.2502,100.7352,698.0135,85.6366,675.2297,81.4527z M751.4955,113.56
		C737.2609,57.3947,717.6142,1.9121,686.7351-47.386c-27.1956-53.7548-59.0301-107.2823-68.3077-167.6766
		c-5.6392-37.7465,19.8738-85.2709,61.9863-84.4523c28.6512,2.6833,58.6665,13.1432,77.722,35.6547
		c-46.3422,9.6413-74.1746,60.9401-66.3981,105.7811c7.6406,35.2,18.8734,69.7175,34.5181,102.2343
		c6.3665,13.2339,9.4592,27.5595,13.5068,41.612C754.3151,26.5154,753.9059,70.8563,751.4955,113.56z"/>
</g>
</svg>
